<mxfile host="app.diagrams.net" modified="2023-06-07T12:53:47.774Z" agent="Mozilla/5.0 (Macintosh; Intel Mac OS X 10_15_7) AppleWebKit/537.36 (KHTML, like Gecko) Chrome/108.0.0.0 Safari/537.36" etag="ccaFyl0NuwtOuBB03PlD" version="21.2.7" type="device">
  <diagram name="Seite-1" id="JU1BFPVixogmKXsVExZw">
    <mxGraphModel dx="2765" dy="1437" grid="1" gridSize="10" guides="1" tooltips="1" connect="1" arrows="1" fold="1" page="1" pageScale="1" pageWidth="827" pageHeight="1169" math="0" shadow="0">
      <root>
        <mxCell id="0" />
        <mxCell id="1" parent="0" />
        <mxCell id="egae5NmvAGoOlGtRen5r-1" value="ExerciseFragment" style="shape=umlLifeline;perimeter=lifelinePerimeter;whiteSpace=wrap;html=1;container=0;dropTarget=0;collapsible=0;recursiveResize=0;outlineConnect=0;portConstraint=eastwest;newEdgeStyle={&quot;edgeStyle&quot;:&quot;elbowEdgeStyle&quot;,&quot;elbow&quot;:&quot;vertical&quot;,&quot;curved&quot;:0,&quot;rounded&quot;:0};" vertex="1" parent="1">
          <mxGeometry x="130" y="110" width="100" height="1330" as="geometry" />
        </mxCell>
        <mxCell id="egae5NmvAGoOlGtRen5r-2" value="" style="html=1;points=[];perimeter=orthogonalPerimeter;outlineConnect=0;targetShapes=umlLifeline;portConstraint=eastwest;newEdgeStyle={&quot;edgeStyle&quot;:&quot;elbowEdgeStyle&quot;,&quot;elbow&quot;:&quot;vertical&quot;,&quot;curved&quot;:0,&quot;rounded&quot;:0};" vertex="1" parent="egae5NmvAGoOlGtRen5r-1">
          <mxGeometry x="45" y="70" width="10" height="1220" as="geometry" />
        </mxCell>
        <mxCell id="egae5NmvAGoOlGtRen5r-3" value="startExercise()" style="html=1;verticalAlign=bottom;startArrow=oval;endArrow=block;startSize=8;edgeStyle=elbowEdgeStyle;elbow=vertical;curved=0;rounded=0;" edge="1" parent="egae5NmvAGoOlGtRen5r-1" target="egae5NmvAGoOlGtRen5r-2">
          <mxGeometry relative="1" as="geometry">
            <mxPoint x="-30" y="70" as="sourcePoint" />
          </mxGeometry>
        </mxCell>
        <mxCell id="egae5NmvAGoOlGtRen5r-4" value="ExerciseViewModel" style="shape=umlLifeline;perimeter=lifelinePerimeter;whiteSpace=wrap;html=1;container=0;dropTarget=0;collapsible=0;recursiveResize=0;outlineConnect=0;portConstraint=eastwest;newEdgeStyle={&quot;edgeStyle&quot;:&quot;elbowEdgeStyle&quot;,&quot;elbow&quot;:&quot;vertical&quot;,&quot;curved&quot;:0,&quot;rounded&quot;:0};" vertex="1" parent="1">
          <mxGeometry x="310" y="110" width="120" height="1330" as="geometry" />
        </mxCell>
        <mxCell id="egae5NmvAGoOlGtRen5r-5" value="" style="html=1;points=[];perimeter=orthogonalPerimeter;outlineConnect=0;targetShapes=umlLifeline;portConstraint=eastwest;newEdgeStyle={&quot;edgeStyle&quot;:&quot;elbowEdgeStyle&quot;,&quot;elbow&quot;:&quot;vertical&quot;,&quot;curved&quot;:0,&quot;rounded&quot;:0};" vertex="1" parent="egae5NmvAGoOlGtRen5r-4">
          <mxGeometry x="55" y="80" width="10" height="1210" as="geometry" />
        </mxCell>
        <mxCell id="egae5NmvAGoOlGtRen5r-7" value="createExerciseWithBasicFields()" style="html=1;align=left;spacingLeft=2;endArrow=block;rounded=0;edgeStyle=orthogonalEdgeStyle;curved=0;rounded=0;" edge="1" parent="egae5NmvAGoOlGtRen5r-4" target="egae5NmvAGoOlGtRen5r-5">
          <mxGeometry relative="1" as="geometry">
            <mxPoint x="65" y="120" as="sourcePoint" />
            <Array as="points">
              <mxPoint x="95" y="120" />
              <mxPoint x="95" y="150" />
            </Array>
            <mxPoint x="70" y="150" as="targetPoint" />
          </mxGeometry>
        </mxCell>
        <mxCell id="egae5NmvAGoOlGtRen5r-10" value="startExercise()" style="html=1;verticalAlign=bottom;endArrow=block;edgeStyle=elbowEdgeStyle;elbow=horizontal;curved=0;rounded=0;" edge="1" parent="1" source="egae5NmvAGoOlGtRen5r-2" target="egae5NmvAGoOlGtRen5r-5">
          <mxGeometry relative="1" as="geometry">
            <mxPoint x="285" y="200" as="sourcePoint" />
            <Array as="points">
              <mxPoint x="270" y="190" />
            </Array>
            <mxPoint as="offset" />
          </mxGeometry>
        </mxCell>
        <mxCell id="egae5NmvAGoOlGtRen5r-11" value="Start Exercise Flow" style="text;html=1;align=center;verticalAlign=middle;resizable=0;points=[];autosize=1;strokeColor=none;fillColor=none;" vertex="1" parent="1">
          <mxGeometry x="100" y="70" width="130" height="30" as="geometry" />
        </mxCell>
        <mxCell id="egae5NmvAGoOlGtRen5r-27" value="return created Exercise" style="html=1;verticalAlign=bottom;endArrow=open;dashed=1;endSize=8;edgeStyle=elbowEdgeStyle;elbow=horizontal;curved=0;rounded=0;" edge="1" parent="1">
          <mxGeometry relative="1" as="geometry">
            <mxPoint x="369.5" y="1400" as="sourcePoint" />
            <mxPoint x="180" y="1400" as="targetPoint" />
          </mxGeometry>
        </mxCell>
        <mxCell id="egae5NmvAGoOlGtRen5r-28" value="Actor" style="shape=umlActor;verticalLabelPosition=bottom;verticalAlign=top;html=1;" vertex="1" parent="1">
          <mxGeometry x="80" y="190" width="30" height="60" as="geometry" />
        </mxCell>
        <mxCell id="egae5NmvAGoOlGtRen5r-32" value="validateActiveExercise()" style="html=1;align=left;spacingLeft=2;endArrow=block;rounded=0;edgeStyle=orthogonalEdgeStyle;curved=0;rounded=0;" edge="1" parent="1">
          <mxGeometry relative="1" as="geometry">
            <mxPoint x="375" y="294" as="sourcePoint" />
            <Array as="points">
              <mxPoint x="405" y="294" />
              <mxPoint x="405" y="324" />
            </Array>
            <mxPoint x="375" y="324" as="targetPoint" />
          </mxGeometry>
        </mxCell>
        <mxCell id="egae5NmvAGoOlGtRen5r-33" value="StartExerciseService" style="shape=umlLifeline;perimeter=lifelinePerimeter;whiteSpace=wrap;html=1;container=1;dropTarget=0;collapsible=0;recursiveResize=0;outlineConnect=0;portConstraint=eastwest;newEdgeStyle={&quot;edgeStyle&quot;:&quot;elbowEdgeStyle&quot;,&quot;elbow&quot;:&quot;vertical&quot;,&quot;curved&quot;:0,&quot;rounded&quot;:0};" vertex="1" parent="1">
          <mxGeometry x="590" y="110" width="130" height="1330" as="geometry" />
        </mxCell>
        <mxCell id="egae5NmvAGoOlGtRen5r-35" value="" style="html=1;points=[];perimeter=orthogonalPerimeter;outlineConnect=0;targetShapes=umlLifeline;portConstraint=eastwest;newEdgeStyle={&quot;edgeStyle&quot;:&quot;elbowEdgeStyle&quot;,&quot;elbow&quot;:&quot;vertical&quot;,&quot;curved&quot;:0,&quot;rounded&quot;:0};" vertex="1" parent="egae5NmvAGoOlGtRen5r-33">
          <mxGeometry x="60" y="350" width="10" height="670" as="geometry" />
        </mxCell>
        <mxCell id="egae5NmvAGoOlGtRen5r-34" value="startExercise()" style="html=1;verticalAlign=bottom;endArrow=block;edgeStyle=elbowEdgeStyle;elbow=vertical;curved=0;rounded=0;" edge="1" parent="1" target="egae5NmvAGoOlGtRen5r-33">
          <mxGeometry width="80" relative="1" as="geometry">
            <mxPoint x="374" y="460" as="sourcePoint" />
            <mxPoint x="454" y="460" as="targetPoint" />
          </mxGeometry>
        </mxCell>
        <mxCell id="egae5NmvAGoOlGtRen5r-45" value="ExerciseRepository" style="shape=umlLifeline;perimeter=lifelinePerimeter;whiteSpace=wrap;html=1;container=0;dropTarget=0;collapsible=0;recursiveResize=0;outlineConnect=0;portConstraint=eastwest;newEdgeStyle={&quot;edgeStyle&quot;:&quot;elbowEdgeStyle&quot;,&quot;elbow&quot;:&quot;vertical&quot;,&quot;curved&quot;:0,&quot;rounded&quot;:0};" vertex="1" parent="1">
          <mxGeometry x="827" y="110" width="120" height="1330" as="geometry" />
        </mxCell>
        <mxCell id="egae5NmvAGoOlGtRen5r-60" value="" style="html=1;points=[];perimeter=orthogonalPerimeter;outlineConnect=0;targetShapes=umlLifeline;portConstraint=eastwest;newEdgeStyle={&quot;edgeStyle&quot;:&quot;elbowEdgeStyle&quot;,&quot;elbow&quot;:&quot;vertical&quot;,&quot;curved&quot;:0,&quot;rounded&quot;:0};" vertex="1" parent="egae5NmvAGoOlGtRen5r-45">
          <mxGeometry x="55" y="240" width="10" height="80" as="geometry" />
        </mxCell>
        <mxCell id="egae5NmvAGoOlGtRen5r-61" value="save() setActive()" style="html=1;verticalAlign=bottom;endArrow=block;edgeStyle=elbowEdgeStyle;elbow=vertical;curved=0;rounded=0;" edge="1" parent="egae5NmvAGoOlGtRen5r-45" source="egae5NmvAGoOlGtRen5r-4">
          <mxGeometry x="-0.5901" relative="1" as="geometry">
            <mxPoint x="-86" y="240" as="sourcePoint" />
            <mxPoint x="61" y="240.00000000000023" as="targetPoint" />
            <Array as="points">
              <mxPoint x="-460" y="240" />
            </Array>
            <mxPoint as="offset" />
          </mxGeometry>
        </mxCell>
        <mxCell id="egae5NmvAGoOlGtRen5r-94" value="" style="html=1;points=[];perimeter=orthogonalPerimeter;outlineConnect=0;targetShapes=umlLifeline;portConstraint=eastwest;newEdgeStyle={&quot;edgeStyle&quot;:&quot;elbowEdgeStyle&quot;,&quot;elbow&quot;:&quot;vertical&quot;,&quot;curved&quot;:0,&quot;rounded&quot;:0};" vertex="1" parent="egae5NmvAGoOlGtRen5r-45">
          <mxGeometry x="55" y="1140" width="10" height="80" as="geometry" />
        </mxCell>
        <mxCell id="egae5NmvAGoOlGtRen5r-95" value="save Exercise" style="html=1;verticalAlign=bottom;endArrow=block;edgeStyle=elbowEdgeStyle;elbow=vertical;curved=0;rounded=0;" edge="1" parent="egae5NmvAGoOlGtRen5r-45">
          <mxGeometry x="-0.5901" relative="1" as="geometry">
            <mxPoint x="-452" y="1140" as="sourcePoint" />
            <mxPoint x="56" y="1140.0000000000002" as="targetPoint" />
            <Array as="points">
              <mxPoint x="-465" y="1140" />
            </Array>
            <mxPoint as="offset" />
          </mxGeometry>
        </mxCell>
        <mxCell id="egae5NmvAGoOlGtRen5r-96" value="return saved exercise" style="html=1;verticalAlign=bottom;endArrow=open;dashed=1;endSize=8;edgeStyle=elbowEdgeStyle;elbow=horizontal;curved=0;rounded=0;" edge="1" parent="egae5NmvAGoOlGtRen5r-45">
          <mxGeometry relative="1" as="geometry">
            <mxPoint x="-457" y="1220" as="targetPoint" />
            <mxPoint x="62" y="1219.25" as="sourcePoint" />
          </mxGeometry>
        </mxCell>
        <mxCell id="egae5NmvAGoOlGtRen5r-51" value="ExerciseService" style="shape=umlLifeline;perimeter=lifelinePerimeter;whiteSpace=wrap;html=1;container=1;dropTarget=0;collapsible=0;recursiveResize=0;outlineConnect=0;portConstraint=eastwest;newEdgeStyle={&quot;edgeStyle&quot;:&quot;elbowEdgeStyle&quot;,&quot;elbow&quot;:&quot;vertical&quot;,&quot;curved&quot;:0,&quot;rounded&quot;:0};" vertex="1" parent="1">
          <mxGeometry x="1060" y="110" width="100" height="1330" as="geometry" />
        </mxCell>
        <mxCell id="egae5NmvAGoOlGtRen5r-62" value="return saved exercise" style="html=1;verticalAlign=bottom;endArrow=open;dashed=1;endSize=8;edgeStyle=elbowEdgeStyle;elbow=horizontal;curved=0;rounded=0;" edge="1" parent="1">
          <mxGeometry relative="1" as="geometry">
            <mxPoint x="376.25" y="429.25" as="targetPoint" />
            <mxPoint x="898" y="429.25" as="sourcePoint" />
          </mxGeometry>
        </mxCell>
        <mxCell id="egae5NmvAGoOlGtRen5r-72" value="HrEventBus" style="shape=umlLifeline;perimeter=lifelinePerimeter;whiteSpace=wrap;html=1;container=1;dropTarget=0;collapsible=0;recursiveResize=0;outlineConnect=0;portConstraint=eastwest;newEdgeStyle={&quot;edgeStyle&quot;:&quot;elbowEdgeStyle&quot;,&quot;elbow&quot;:&quot;vertical&quot;,&quot;curved&quot;:0,&quot;rounded&quot;:0};" vertex="1" parent="1">
          <mxGeometry x="1260" y="110" width="100" height="1330" as="geometry" />
        </mxCell>
        <mxCell id="egae5NmvAGoOlGtRen5r-73" value="" style="html=1;points=[];perimeter=orthogonalPerimeter;outlineConnect=0;targetShapes=umlLifeline;portConstraint=eastwest;newEdgeStyle={&quot;edgeStyle&quot;:&quot;elbowEdgeStyle&quot;,&quot;elbow&quot;:&quot;vertical&quot;,&quot;curved&quot;:0,&quot;rounded&quot;:0};" vertex="1" parent="egae5NmvAGoOlGtRen5r-72">
          <mxGeometry x="45" y="410.5" width="10" height="80" as="geometry" />
        </mxCell>
        <mxCell id="egae5NmvAGoOlGtRen5r-74" value="listen to HrEvent" style="html=1;verticalAlign=bottom;endArrow=block;edgeStyle=elbowEdgeStyle;elbow=vertical;curved=0;rounded=0;" edge="1" parent="1">
          <mxGeometry relative="1" as="geometry">
            <mxPoint x="660" y="520.2592592592591" as="sourcePoint" />
            <mxPoint x="1305" y="520.2592592592591" as="targetPoint" />
          </mxGeometry>
        </mxCell>
        <mxCell id="egae5NmvAGoOlGtRen5r-75" value="return HR event" style="html=1;verticalAlign=bottom;endArrow=open;dashed=1;endSize=8;edgeStyle=elbowEdgeStyle;elbow=vertical;curved=0;rounded=0;" edge="1" parent="1">
          <mxGeometry x="-0.0014" relative="1" as="geometry">
            <mxPoint x="660" y="601" as="targetPoint" />
            <mxPoint x="1310" y="581.5" as="sourcePoint" />
            <Array as="points">
              <mxPoint x="990" y="601" />
            </Array>
            <mxPoint as="offset" />
          </mxGeometry>
        </mxCell>
        <mxCell id="egae5NmvAGoOlGtRen5r-77" value="fillExerciseFields" style="html=1;align=left;spacingLeft=2;endArrow=block;rounded=0;edgeStyle=orthogonalEdgeStyle;curved=0;rounded=0;" edge="1" parent="1">
          <mxGeometry relative="1" as="geometry">
            <mxPoint x="660" y="1015" as="sourcePoint" />
            <Array as="points">
              <mxPoint x="690" y="1015" />
              <mxPoint x="690" y="1045" />
            </Array>
            <mxPoint x="660" y="1044.9999999999998" as="targetPoint" />
          </mxGeometry>
        </mxCell>
        <mxCell id="egae5NmvAGoOlGtRen5r-79" value="processHrData()" style="html=1;verticalAlign=bottom;endArrow=block;edgeStyle=elbowEdgeStyle;elbow=vertical;curved=0;rounded=0;" edge="1" parent="1" target="egae5NmvAGoOlGtRen5r-51">
          <mxGeometry x="-0.0032" width="80" relative="1" as="geometry">
            <mxPoint x="660" y="700.5" as="sourcePoint" />
            <mxPoint x="941" y="700.5" as="targetPoint" />
            <mxPoint as="offset" />
          </mxGeometry>
        </mxCell>
        <mxCell id="egae5NmvAGoOlGtRen5r-82" value="return AvgHr, maxHr, minHr" style="html=1;verticalAlign=bottom;endArrow=open;dashed=1;endSize=8;edgeStyle=elbowEdgeStyle;elbow=vertical;curved=0;rounded=0;" edge="1" parent="1" target="egae5NmvAGoOlGtRen5r-33">
          <mxGeometry relative="1" as="geometry">
            <mxPoint x="1110" y="800.5" as="sourcePoint" />
            <mxPoint x="1030" y="800.5" as="targetPoint" />
          </mxGeometry>
        </mxCell>
        <mxCell id="egae5NmvAGoOlGtRen5r-83" value="" style="html=1;points=[];perimeter=orthogonalPerimeter;outlineConnect=0;targetShapes=umlLifeline;portConstraint=eastwest;newEdgeStyle={&quot;edgeStyle&quot;:&quot;elbowEdgeStyle&quot;,&quot;elbow&quot;:&quot;vertical&quot;,&quot;curved&quot;:0,&quot;rounded&quot;:0};" vertex="1" parent="1">
          <mxGeometry x="1105" y="701.5" width="10" height="98.5" as="geometry" />
        </mxCell>
        <mxCell id="egae5NmvAGoOlGtRen5r-84" value="calculateBurnedCalories()" style="html=1;verticalAlign=bottom;endArrow=block;edgeStyle=elbowEdgeStyle;elbow=vertical;curved=0;rounded=0;" edge="1" parent="1">
          <mxGeometry x="-0.0032" width="80" relative="1" as="geometry">
            <mxPoint x="660" y="870.5" as="sourcePoint" />
            <mxPoint x="1110" y="871" as="targetPoint" />
            <mxPoint as="offset" />
          </mxGeometry>
        </mxCell>
        <mxCell id="egae5NmvAGoOlGtRen5r-85" value="return burnedCalories" style="html=1;verticalAlign=bottom;endArrow=open;dashed=1;endSize=8;edgeStyle=elbowEdgeStyle;elbow=vertical;curved=0;rounded=0;" edge="1" parent="1">
          <mxGeometry relative="1" as="geometry">
            <mxPoint x="1110" y="970.5" as="sourcePoint" />
            <mxPoint x="654" y="971" as="targetPoint" />
          </mxGeometry>
        </mxCell>
        <mxCell id="egae5NmvAGoOlGtRen5r-86" value="" style="html=1;points=[];perimeter=orthogonalPerimeter;outlineConnect=0;targetShapes=umlLifeline;portConstraint=eastwest;newEdgeStyle={&quot;edgeStyle&quot;:&quot;elbowEdgeStyle&quot;,&quot;elbow&quot;:&quot;vertical&quot;,&quot;curved&quot;:0,&quot;rounded&quot;:0};" vertex="1" parent="1">
          <mxGeometry x="1105" y="871.5" width="10" height="98.5" as="geometry" />
        </mxCell>
        <mxCell id="egae5NmvAGoOlGtRen5r-87" value="ExerciseEventBus" style="shape=umlLifeline;perimeter=lifelinePerimeter;whiteSpace=wrap;html=1;container=1;dropTarget=0;collapsible=0;recursiveResize=0;outlineConnect=0;portConstraint=eastwest;newEdgeStyle={&quot;edgeStyle&quot;:&quot;elbowEdgeStyle&quot;,&quot;elbow&quot;:&quot;vertical&quot;,&quot;curved&quot;:0,&quot;rounded&quot;:0};" vertex="1" parent="1">
          <mxGeometry x="1430" y="110" width="100" height="1330" as="geometry" />
        </mxCell>
        <mxCell id="egae5NmvAGoOlGtRen5r-89" value="publishExerciseEvent()" style="html=1;verticalAlign=bottom;endArrow=block;edgeStyle=elbowEdgeStyle;elbow=vertical;curved=0;rounded=0;" edge="1" parent="1" source="egae5NmvAGoOlGtRen5r-33">
          <mxGeometry x="-0.0032" width="80" relative="1" as="geometry">
            <mxPoint x="1030" y="1080.5" as="sourcePoint" />
            <mxPoint x="1480" y="1081" as="targetPoint" />
            <mxPoint as="offset" />
          </mxGeometry>
        </mxCell>
        <mxCell id="egae5NmvAGoOlGtRen5r-91" value="" style="html=1;points=[];perimeter=orthogonalPerimeter;outlineConnect=0;targetShapes=umlLifeline;portConstraint=eastwest;newEdgeStyle={&quot;edgeStyle&quot;:&quot;elbowEdgeStyle&quot;,&quot;elbow&quot;:&quot;vertical&quot;,&quot;curved&quot;:0,&quot;rounded&quot;:0};" vertex="1" parent="1">
          <mxGeometry x="1475" y="1081.5" width="10" height="128.5" as="geometry" />
        </mxCell>
        <mxCell id="egae5NmvAGoOlGtRen5r-92" value="listen to ExerciseEvent" style="html=1;verticalAlign=bottom;endArrow=block;edgeStyle=elbowEdgeStyle;elbow=vertical;curved=0;rounded=0;" edge="1" parent="1" target="egae5NmvAGoOlGtRen5r-87">
          <mxGeometry width="80" relative="1" as="geometry">
            <mxPoint x="374" y="1170" as="sourcePoint" />
            <mxPoint x="655" y="1170" as="targetPoint" />
          </mxGeometry>
        </mxCell>
        <mxCell id="egae5NmvAGoOlGtRen5r-93" value="return Exercise Event" style="html=1;verticalAlign=bottom;endArrow=open;dashed=1;endSize=8;edgeStyle=elbowEdgeStyle;elbow=vertical;curved=0;rounded=0;" edge="1" parent="1" target="egae5NmvAGoOlGtRen5r-4">
          <mxGeometry relative="1" as="geometry">
            <mxPoint x="1485" y="1210" as="sourcePoint" />
            <mxPoint x="1029" y="1210.5" as="targetPoint" />
          </mxGeometry>
        </mxCell>
        <mxCell id="egae5NmvAGoOlGtRen5r-99" value="onStop" style="text;html=1;align=center;verticalAlign=middle;resizable=0;points=[];autosize=1;strokeColor=none;fillColor=none;" vertex="1" parent="1">
          <mxGeometry x="590" y="1051.5" width="60" height="30" as="geometry" />
        </mxCell>
      </root>
    </mxGraphModel>
  </diagram>
</mxfile>
